<?xml version="1.0" standalone="no"?><!DOCTYPE svg PUBLIC "-//W3C//DTD SVG 1.1//EN" "http://www.w3.org/Graphics/SVG/1.1/DTD/svg11.dtd"><svg t="1758266486403" class="icon" viewBox="0 0 1024 1024" version="1.1" xmlns="http://www.w3.org/2000/svg" p-id="1617" xmlns:xlink="http://www.w3.org/1999/xlink" width="200" height="200"><path d="M512.00032 320.032a256 256 0 0 0-256 256 256 256 0 1 0 512 0 256 256 0 0 0-256-256z m145.76 380.96a191.936 191.936 0 0 1-270.688 20.8 191.904 191.904 0 0 1-20.8-270.688 192 192 0 0 1 291.488 249.888z" fill="#8a8a8a" p-id="1618"></path><path d="M512.00032 448.032A128 128 0 0 0 384.00032 576v0.064a16 16 0 0 0 32 0V576a96 96 0 0 1 96-95.968 16 16 0 0 0 0-32z" fill="#8a8a8a" p-id="1619"></path><path d="M943.74432 289.344l-138.688-23.136-43.936-109.888A95.616 95.616 0 0 0 672.00032 96H352.00032a95.68 95.68 0 0 0-89.152 60.352L218.94432 266.208l-138.656 23.136A95.648 95.648 0 0 0 0.00032 384v480c0 52.928 43.072 96 96 96h832c52.928 0 96-43.072 96-96V384a95.648 95.648 0 0 0-80.256-94.656zM960.00032 864a32 32 0 0 1-32 32H96.00032a32 32 0 0 1-32-32V384a32 32 0 0 1 26.752-31.552l174.208-29.024 57.312-143.296C327.16832 168 338.91232 160 352.00032 160h320c13.056 0 24.8 7.968 29.696 20.128l57.312 143.296 174.24 29.024A32 32 0 0 1 960.00032 384v480z" fill="#8a8a8a" p-id="1620"></path></svg>