<?xml version="1.0" encoding="UTF-8" standalone="no"?>
<!-- Created with Inkscape (http://www.inkscape.org/) -->

<svg
   version="1.1"
   id="svg1"
   width="2666.6667"
   height="2666.6667"
   viewBox="0 0 2666.6667 2666.6667"
   sodipodi:docname="270aa148-9218-4e33-99f7-b0d4ab1263f8.ai"
   xmlns:inkscape="http://www.inkscape.org/namespaces/inkscape"
   xmlns:sodipodi="http://sodipodi.sourceforge.net/DTD/sodipodi-0.dtd"
   xmlns="http://www.w3.org/2000/svg"
   xmlns:svg="http://www.w3.org/2000/svg">
  <defs
     id="defs1" />
  <sodipodi:namedview
     id="namedview1"
     pagecolor="#ffffff"
     bordercolor="#000000"
     borderopacity="0.25"
     inkscape:showpageshadow="2"
     inkscape:pageopacity="0.0"
     inkscape:pagecheckerboard="0"
     inkscape:deskcolor="#d1d1d1">
    <inkscape:page
       x="0"
       y="0"
       inkscape:label="1"
       id="page1"
       width="2666.6667"
       height="2666.6667"
       margin="513.35065 111.24 513.34668 111.234"
       bleed="0" />
  </sodipodi:namedview>
  <g
     id="layer-MC0"
     inkscape:groupmode="layer"
     inkscape:label="Слой 1">
    <path
       id="path1"
       d="M 0,0 -282.636,-282.636 H -486.493 L -866.86,-611.828 v 565.252 h -217.016 l -0.082,0.092 -228.025,267.667 h 441.614 v 34.158 h -469.537 l -0.083,0.092 -211.213,247.347 h 0.556 L 119.789,502.955 -126.775,256.39 H -559.881 V 0 Z m -524.334,220.473 h 412.117 l 317.463,317.463 h -1833.149 l 525.734,-618.567 0.072,-0.093 h 197.931 v -611.313 l 431.686,373.844 h 203.332 l 355.14,355.15 h -610.326 z"
       style="fill:#ffffff;fill-opacity:1;fill-rule:nonzero;stroke:none"
       transform="matrix(1.3333333,0,0,-1.3333333,2281.7713,1230.5989)" />
    <path
       id="path2"
       d="m 0,0 -190.173,-190.173 h -201.059 l -320.477,-276.659 v 511.32 h -241.534 l -0.072,0.092 -152.023,179.751 h 391.53 v 121.024 h -495.115 l -0.072,0.082 -134.512,157.693 h 0.555 l 1464.84,0.874 -0.442,-0.442 -155.059,-155.059 h -461.132 l 0,-348.503 z m -450.257,302.267 h 433.106 l 246.565,246.564 -1670.436,-0.174 h -0.556 l 211.214,-247.347 0.082,-0.093 h 469.538 v -34.158 h -441.615 l 228.025,-267.666 0.082,-0.093 h 217.016 v -565.252 l 380.367,329.192 h 203.857 L 109.624,45.876 h -559.881 z"
       style="fill:#080809;fill-opacity:1;fill-rule:nonzero;stroke:none"
       transform="matrix(1.3333333,0,0,-1.3333333,2135.6056,1291.7676)" />
    <path
       id="path3"
       d="M 0,0 V -348.503 H 494.745 L 304.571,-538.677 H 103.513 l -320.478,-276.658 v 511.319 h -241.533 l -0.072,0.093 -152.024,179.751 h 391.53 V -3.148 h -495.115 l -0.072,0.082 -134.512,157.692 h 0.556 l 1464.84,0.875 -0.443,-0.443 L 461.132,0 Z"
       style="fill:#ea1739;fill-opacity:1;fill-rule:nonzero;stroke:none"
       transform="matrix(1.3333333,0,0,-1.3333333,1475.9463,827.0964)" />
  </g>
</svg>
